<svg xmlns="http://www.w3.org/2000/svg" width="21" height="21" fill="none" viewBox="0 0 21 21"><g id="Frame"><path id="Vector" fill="#FFC107" d="M18.6716 8.86775H18.0004V8.83317H10.5003V12.1665H15.2099C14.5229 14.1069 12.6766 15.4998 10.5003 15.4998C7.73907 15.4998 5.50032 13.2611 5.50032 10.4998C5.50032 7.73859 7.73907 5.49984 10.5003 5.49984C11.7749 5.49984 12.9345 5.98067 13.8174 6.76609L16.1745 4.409C14.6862 3.02192 12.6954 2.1665 10.5003 2.1665C5.89824 2.1665 2.16699 5.89775 2.16699 10.4998C2.16699 15.1019 5.89824 18.8332 10.5003 18.8332C15.1024 18.8332 18.8337 15.1019 18.8337 10.4998C18.8337 9.94109 18.7762 9.39567 18.6716 8.86775Z"/><path id="Vector_2" fill="#FF3D00" d="M3.12793 6.62109L5.86585 8.629C6.60668 6.79484 8.40085 5.49984 10.5005 5.49984C11.775 5.49984 12.9346 5.98067 13.8175 6.76609L16.1746 4.409C14.6863 3.02192 12.6955 2.1665 10.5005 2.1665C7.2996 2.1665 4.52377 3.97359 3.12793 6.62109Z"/><path id="Vector_3" fill="#4CAF50" d="M10.4998 18.8331C12.6523 18.8331 14.6082 18.0094 16.0869 16.6698L13.5078 14.4873C12.643 15.145 11.5863 15.5007 10.4998 15.4998C8.3323 15.4998 6.49188 14.1177 5.79855 12.189L3.08105 14.2827C4.46022 16.9815 7.26105 18.8331 10.4998 18.8331Z"/><path id="Vector_4" fill="#1976D2" d="M18.6713 8.86808H18V8.8335H10.5V12.1668H15.2096C14.8809 13.0903 14.2889 13.8973 13.5067 14.4881L13.5079 14.4872L16.0871 16.6697C15.9046 16.8356 18.8333 14.6668 18.8333 10.5002C18.8333 9.94141 18.7758 9.396 18.6713 8.86808Z"/></g></svg>