<svg width="134" height="28" viewBox="0 0 134 28" fill="none" xmlns="http://www.w3.org/2000/svg">
<path d="M39.8805 22.1191H39.3363C38.8193 22.1191 38.4655 21.7926 38.4655 21.2755V19.9965C37.1048 21.7109 35.4177 22.5273 33.2678 22.5273C29.5397 22.5273 26.383 19.4795 26.383 15.1799C26.383 10.8531 29.5125 7.83244 33.2678 7.83244C35.4177 7.83244 37.2409 8.70324 38.3838 10.2816V9.11144C38.3838 8.59439 38.7376 8.24063 39.2547 8.24063H39.8805C40.3976 8.24063 40.7514 8.59439 40.7514 9.11144V21.2483C40.7514 21.7654 40.3976 22.1191 39.8805 22.1191ZM28.7777 15.1799C28.7777 18.3638 30.9548 20.5408 33.676 20.5408C36.3973 20.5408 38.5199 18.3094 38.5199 15.1799C38.5199 12.0232 36.3973 9.81897 33.676 9.81897C30.9548 9.81897 28.7777 11.996 28.7777 15.1799ZM56.1557 12.8668H55.5298C55.1488 12.8668 54.8223 12.6219 54.659 12.2953C53.897 10.717 52.2915 9.81897 50.6315 9.81897C47.9102 9.81897 45.6788 11.996 45.6788 15.1799C45.6788 18.4182 47.9374 20.5408 50.6315 20.5408C52.3459 20.5408 54.0331 19.5339 54.9039 17.6562C55.0672 17.3025 55.3937 17.0304 55.7747 17.0304H56.4006C56.9177 17.0304 57.2442 17.3025 57.2442 17.7379C57.2442 17.8467 57.217 17.9556 57.1898 18.0644C56.1557 21.2755 53.2711 22.5273 50.6315 22.5273C46.5224 22.5273 43.3113 19.4795 43.3113 15.1799C43.3113 10.9075 46.5224 7.83244 50.6315 7.83244C53.3528 7.83244 55.8836 9.27471 56.9177 11.8055C56.9721 11.9416 56.9993 12.1048 56.9993 12.2137C56.9993 12.6219 56.6727 12.8668 56.1557 12.8668ZM60.1789 21.2483V3.94101C60.1789 3.42397 60.5327 3.0702 61.0497 3.0702H61.6756C62.1927 3.0702 62.5464 3.42397 62.5464 3.94101V14.2002L68.4516 8.64882C68.751 8.34948 69.1047 8.24063 69.3224 8.24063H70.3837C70.9008 8.24063 71.1729 8.37669 71.1729 8.62161C71.1729 8.8121 71.064 9.0298 70.7919 9.27471L66.4651 13.3838L72.0709 20.949C72.2614 21.1939 72.343 21.4116 72.343 21.5749C72.343 21.9287 72.0437 22.1191 71.4722 22.1191H70.4654C70.2204 22.1191 69.9211 21.9831 69.7578 21.7654L64.8867 14.9078L62.5464 17.1392V21.2483C62.5464 21.7654 62.1927 22.1191 61.6756 22.1191H61.0497C60.5327 22.1191 60.1789 21.7654 60.1789 21.2483ZM74.694 3.94101C74.694 3.42397 75.0477 3.0702 75.5648 3.0702H86.0145C86.5315 3.0702 86.8853 3.42397 86.8853 3.94101V4.37641C86.8853 4.89346 86.5315 5.24722 86.0145 5.24722H77.2248V11.3157H85.2253C85.7424 11.3157 86.0961 11.6694 86.0961 12.1865V12.5675C86.0961 13.0845 85.7424 13.4383 85.2253 13.4383H77.2248V19.9421H86.3955C86.9125 19.9421 87.2663 20.2959 87.2663 20.8129V21.2483C87.2663 21.7654 86.9125 22.1191 86.3955 22.1191H75.5648C75.0477 22.1191 74.694 21.7654 74.694 21.2483V3.94101ZM102.863 22.1191H102.319C101.802 22.1191 101.448 21.7926 101.448 21.2755V19.9965C100.088 21.7109 98.4003 22.5273 96.2505 22.5273C92.5224 22.5273 89.3657 19.4795 89.3657 15.1799C89.3657 10.8531 92.4952 7.83244 96.2505 7.83244C98.4003 7.83244 100.224 8.70324 101.367 10.2816V9.11144C101.367 8.59439 101.72 8.24063 102.237 8.24063H102.863C103.38 8.24063 103.734 8.59439 103.734 9.11144V21.2483C103.734 21.7654 103.38 22.1191 102.863 22.1191ZM91.7604 15.1799C91.7604 18.3638 93.9374 20.5408 96.6587 20.5408C99.38 20.5408 101.503 18.3094 101.503 15.1799C101.503 12.0232 99.38 9.81897 96.6587 9.81897C93.9374 9.81897 91.7604 11.996 91.7604 15.1799ZM112.907 16.1595L110.267 15.4792C108.444 15.0166 106.675 14.2002 106.675 11.8055C106.675 9.65569 108.471 7.83244 111.764 7.83244C113.995 7.83244 116.39 8.70324 116.934 11.0435C116.934 11.098 116.961 11.1796 116.961 11.234C116.961 11.6422 116.608 11.9144 116.145 11.9144H115.628C115.138 11.9144 114.839 11.5878 114.621 11.1524C114.131 10.1455 112.907 9.79176 111.818 9.79176C110.131 9.79176 109.042 10.5809 109.042 11.7783C109.042 12.8124 109.94 13.3294 111.002 13.6015L113.315 14.2002C115.437 14.7445 117.669 15.452 117.669 18.2277C117.669 20.7041 115.655 22.5273 112.172 22.5273C109.587 22.5273 107.056 21.5205 106.484 18.5815C106.457 18.5271 106.457 18.4726 106.457 18.391C106.457 17.9828 106.784 17.6835 107.301 17.6835H107.791C108.308 17.6835 108.634 18.0372 108.77 18.5271C109.179 19.9965 110.594 20.568 112.117 20.568C114.213 20.568 115.301 19.5884 115.301 18.2821C115.301 17.0576 114.322 16.5405 112.907 16.1595ZM119.121 8.94816C119.121 8.51276 119.447 8.24063 120.046 8.24063H120.781C121.134 8.24063 121.461 8.45833 121.597 8.8121L125.625 19.4523H125.706L129.679 8.8121C129.815 8.45833 130.142 8.24063 130.496 8.24063H131.23C131.802 8.24063 132.128 8.51276 132.128 8.94816C132.128 9.11144 132.101 9.27471 132.02 9.43799L127.012 21.8742C125.325 26.0378 124.427 27.6978 121.842 27.6978C121.379 27.6978 120.808 27.6433 120.291 27.5617C119.883 27.5073 119.638 27.1535 119.638 26.7725V26.3915C119.638 25.8745 119.883 25.684 120.345 25.684C120.754 25.684 121.134 25.7384 121.434 25.7384C123.039 25.7384 123.91 23.8063 124.454 22.0103L119.23 9.43799C119.148 9.27471 119.121 9.11144 119.121 8.94816Z" fill="black"/>
<path d="M21.277 9.24554L20.4198 13.256H24.0935V17.9706H19.4095L18.3992 22.6546H13.5009L14.5112 17.9706H9.42923L8.41895 22.6546H3.52065L4.53093 17.9706H0V13.256H5.5412L6.3984 9.24554H1.95932V4.53093H7.37806L8.35772 0H13.256L12.2764 4.53093H17.3583L18.338 0H23.2363L22.2566 4.53093H26.0528V9.24554H21.277ZM16.3787 9.24554H11.2967L10.4395 13.256H15.5215L16.3787 9.24554Z" fill="black"/>
</svg>
